<?xml version="1.0" encoding="utf-8"?>
<!-- Generator: Adobe Illustrator 15.0.0, SVG Export Plug-In . SVG Version: 6.00 Build 0)  -->
<!DOCTYPE svg PUBLIC "-//W3C//DTD SVG 1.1//EN" "http://www.w3.org/Graphics/SVG/1.1/DTD/svg11.dtd">
<svg version="1.1" id="Layer_1" xmlns="http://www.w3.org/2000/svg" xmlns:xlink="http://www.w3.org/1999/xlink" x="0px" y="0px"
	 width="998px" height="1000px" viewBox="0 0 998 1000" enable-background="new 0 0 998 1000" xml:space="preserve">
<path d="M0,499c0-68,13.333-132.667,40-194C92.666,181,181,92.667,305,40C366.332,13.333,431,0,499,0s132.666,13.333,194,40
	c122.666,52,211,140.333,265,265c26.666,63.333,40,128,40,194s-13.334,130.667-40,194c-54,125.333-142.334,214.333-265,267
	c-61.334,26.667-126,40-194,40s-132.668-13.333-194-40C181,906.667,92.666,817.667,40,693C13.333,631.667,0,567,0,499z M78,499
	c0,94,28,178,84,252c55.333,72.667,127.666,124.333,217,155v-80c0-40,13.332-69,40-87c-13.334-0.667-29-3-47-7
	c-34-6-63-16.667-87-32c-60.667-36.667-91-103-91-199c0-50,16.666-92.667,50-128c-15.334-39.333-13.667-82,5-128h20
	c6.666,0,15,1.667,25,5c26,8,55,22.667,87,44c40.666-10.667,80.666-16,120-16c39.332,0,79.666,5.333,121,16
	c26-17.333,50.332-30.667,73-40c21.332-8,36.666-11.333,46-10l12,1c18,46,19.666,88.667,5,128c33.332,35.333,50,78,50,128
	c0,74.667-18.334,131-55,169c-20,21.333-46.334,38-79,50c-27.334,10-57.668,16.333-91,19c27.332,19.333,41,48.333,41,87v80
	c86-30.667,157-83,213-157c54.666-73.333,82-156.667,82-250c0-56.667-11-111.333-33-164c-21.334-50.667-51.334-95.333-90-134
	c-37.334-37.333-82-67-134-89c-53.334-22.667-107.668-34-163-34c-54.668,0-109.334,11.333-164,34c-50,21.333-94.667,51-134,89
	c-37.334,38.667-67.334,83.333-90,134C89,387.667,78,442.333,78,499z"/>
</svg>
